{"title":"Avatar-720p MP4 AAC x264 Extended Collectors Cut BRRip 2009-CC","uid":7187861,"size":3781217737,"categoryP":"video","categoryS":"hd___movies","magnet":"?xt=urn:btih:ecb32984b127718fe7524b9d0b72cfe7d436e900&amp;dn=Avatar-720p+MP4+AAC+x264+Extended+Collectors+Cut+BRRip+2009-CC&amp;tr=udp%3A%2F%2Ftracker.openbittorrent.com%3A80&amp;tr=udp%3A%2F%2Fopen.demonii.com%3A1337&amp;tr=udp%3A%2F%2Ftracker.coppersurfer.tk%3A6969&amp;tr=udp%3A%2F%2Fexodus.desync.com%3A6969","seeders":1,"leechers":3,"uploader":"Caveman44","files":-1,"time":1334510767,"description":"Source: Avatar 2009 Extended Collectors Cut BluRay 720p DTS x264-3Li ( Awesome job. A BIG THANKS m8! )\n\nSubs: Arabic, Brazilian, Bulgarian, Chinese, Croatian, Czech, Danish, Dutch, English (Foreign Only), English (Hearing Impaired), English, Estonian, Farsi-Persian, Finnish, French, German, Greek, Hebrew, Hungarian, Indonesian, Norwegian, Polish, Portuguese, Romanian, Russian (Foreign Only), Russian, Serbian (Cyrillic), Serbian, Slovenian, Spanish, Swedish, Turkish and Vietnamese.\n\nSample and Screens included.\n\nGeneral\nComplete name                    : Avatar-720p MP4 AAC x264 Extended Collectors Cut BRRip 2009-CC.mp4\nFormat                           : MPEG-4\nFormat profile                   : Base Media\nCodec ID                         : isom\nFile size                        : 3.47 GiB\nDuration                         : 2h 58mn\nOverall bit rate                 : 2 789 Kbps\nEncoded date                     : UTC 2012-04-13 09:07:07\n\nVideo\nID                               : 1\nFormat                           : AVC\nFormat/Info                      : Advanced Video Codec\nFormat profile                   : &lt;a class=&quot;__cf_email__&quot; href=&quot;/cdn-cgi/l/email-protection&quot; data-cfemail=&quot;6a22030d022a2659445b&quot;&gt;[email&amp;#160;protected]&lt;/a&gt;&lt;script cf-hash='f9e31' type=&quot;text/javascript&quot;&gt;\n/* &lt;![CDATA[ */!function(){try{var t=&quot;currentScript&quot;in document?document.currentScript:function(){for(var t=document.getElementsByTagName(&quot;script&quot;),e=t.length;e--;)if(t[e].getAttribute(&quot;cf-hash&quot;))return t[e]}();if(t&amp;&amp;t.previousSibling){var e,r,n,i,c=t.previousSibling,a=c.getAttribute(&quot;data-cfemail&quot;);if(a){for(e=&quot;&quot;,r=parseInt(a.substr(0,2),16),n=2;a.length-n;n+=2)i=parseInt(a.substr(n,2),16)^r,e+=String.fromCharCode(i);e=document.createTextNode(e),c.parentNode.replaceChild(e,c)}}}catch(u){}}();/* ]]&gt; */&lt;/script&gt;\nFormat settings, CABAC           : Yes\nFormat settings, ReFrames        : 5 frames\nCodec ID                         : avc1\nCodec ID/Info                    : Advanced Video Coding\nDuration                         : 2h 58mn\nBit rate mode                    : Variable\nBit rate                         : 2 400 Kbps\nNominal bit rate                 : 2 421 Kbps\nMaximum bit rate                 : 12.9 Mbps\nWidth                            : 1 280 pixels\nHeight                           : 720 pixels\nDisplay aspect ratio             : 16:9\nFrame rate mode                  : Variable\nFrame rate                       : 23.976 fps\nMinimum frame rate               : 15.932 fps\nMaximum frame rate               : 24.390 fps\nResolution                       : 24 bits\nColorimetry                      : 4:2:0\nScan type                        : Progressive\nBits/(Pixel*Frame)               : 0.109\nStream size                      : 2.99 GiB (86%)\nWriting library                  : x264 core 112\n\nAudio\nID                               : 2\nFormat                           : AAC\nFormat/Info                      : Advanced Audio Codec\nFormat version                   : Version 4\nFormat profile                   : LC\nFormat settings, SBR             : No\nCodec ID                         : 40\nDuration                         : 2h 58mn\nBit rate mode                    : Variable\nBit rate                         : 384 Kbps\nMaximum bit rate                 : 613 Kbps\nChannel(s)                       : 6 channels\nChannel positions                : Front: L C R, Rear: L R, LFE\nSampling rate                    : 48.0 KHz\nResolution                       : 16 bits\nStream size                      : 489 MiB (14%)\nLanguage                         : English","torrent":{"xt":"urn:btih:ecb32984b127718fe7524b9d0b72cfe7d436e900","amp;dn":"Avatar-720p+MP4+AAC+x264+Extended+Collectors+Cut+BRRip+2009-CC","amp;tr":["udp%3A%2F%2Ftracker.openbittorrent.com%3A80","udp%3A%2F%2Fopen.demonii.com%3A1337","udp%3A%2F%2Ftracker.coppersurfer.tk%3A6969","udp%3A%2F%2Fexodus.desync.com%3A6969"],"infoHash":"ecb32984b127718fe7524b9d0b72cfe7d436e900","infoHashBuffer":{"type":"Buffer","data":[236,179,41,132,177,39,113,143,231,82,75,157,11,114,207,231,212,54,233,0]},"announce":[],"urlList":[]}}